<svg xmlns="http://www.w3.org/2000/svg" viewBox="0 0 653.56 175.59"><style>g{fill:#fff}@media (prefers-color-scheme:light){g{fill:#000}}</style><g><path d="M176.35 43.21v-18.6h81.83v18.6h-81.83Zm31.02 97.66V33.24h19.33v107.63h-19.33Z"/><path d="M228.2 142.37h-22.33V44.71h-31.02v-21.6h84.83v21.6h-31.49v97.66Zm-19.33-3h16.33V44.71h-16.33v94.66Zm19.33-97.66h28.49v-15.6h-78.83v15.6h28.02v-9.97h22.33v9.97Zm-19.33 0h16.33v-6.97h-16.33v6.97ZM260.22 140.87V59.98h17.3V83.4l-2.18-.17c.31-6.09 1.51-10.88 3.58-14.37 2.08-3.49 4.78-5.95 8.11-7.39 3.32-1.44 6.96-2.16 10.91-2.16h6.24v18.93h-7.64c-5.92 0-10.47 1.44-13.64 4.32-3.17 2.88-4.75 7.09-4.75 12.62v45.67h-17.93Z"/><path d="M279.64 142.37h-20.93V58.48h20.3v7.55c2.02-2.68 4.51-4.67 7.41-5.93 3.5-1.51 7.37-2.28 11.51-2.28h7.74v21.93h-9.14c-5.51 0-9.76 1.32-12.63 3.93-2.87 2.61-4.26 6.37-4.26 11.51v47.17Zm-17.92-3h14.93V95.2c0-5.95 1.77-10.57 5.25-13.73 3.44-3.12 8.37-4.71 14.65-4.71h6.14V60.83h-4.74c-3.72 0-7.19.69-10.32 2.04-3.02 1.31-5.51 3.59-7.41 6.78-.44.73-.84 1.54-1.19 2.41v12.97l-5.26-.4.08-1.46c.23-4.56.97-8.47 2.18-11.68v-10h-14.3v77.89ZM330.2 140.87V67.63l7.95 8.64h-21.82V59.99h31.8v80.89H330.2Zm-.93-97V21.78h19.95v22.09h-19.95Z"/><path d="M349.63 142.37H328.7V77.76h-13.87V58.48h34.8v83.89Zm-17.93-3h14.93V61.48h-28.8v13.28h10.87V63.78l12.87 13.98h-9.87v61.61Zm0-64.61h3.03l-3.03-3.29v3.29Zm19.02-29.39h-22.95V20.28h22.95v25.09Zm-19.95-3h16.95V23.28h-16.95v19.09ZM368.86 174.09V59.98h16.83v19.6l-3.58-4.32c2.91-5.2 6.78-9.33 11.61-12.37 4.83-3.04 10.21-4.57 16.13-4.57 6.86 0 12.99 1.72 18.39 5.15 5.4 3.43 9.66 8.25 12.78 14.45 3.12 6.2 4.68 13.4 4.68 21.59v1.66c0 8.3-1.56 15.56-4.68 21.76-3.12 6.2-7.35 11.02-12.7 14.45-5.35 3.43-11.46 5.15-18.32 5.15-5.72 0-10.91-1.41-15.59-4.24-4.68-2.82-8.47-6.67-11.38-11.54l3.74-4.48v51.82h-17.93Zm38.19-48.33c3.84 0 7.35-1 10.52-2.99 3.17-1.99 5.66-4.84 7.48-8.55 1.82-3.71 2.73-8.06 2.73-13.04v-1.66c0-5.09-.91-9.44-2.73-13.04-1.82-3.6-4.31-6.37-7.48-8.3-3.17-1.94-6.68-2.91-10.52-2.91-4.05 0-7.72 1-10.99 2.99-3.27 1.99-5.82 4.87-7.64 8.64-1.82 3.77-2.73 8.3-2.73 13.62s.91 9.69 2.73 13.45c1.82 3.77 4.37 6.67 7.64 8.72 3.27 2.05 6.94 3.07 10.99 3.07Z"/><path d="M388.28 175.59h-20.93V58.48h19.83v7.65c1.74-1.7 3.65-3.2 5.73-4.51 5.05-3.18 10.75-4.8 16.93-4.8 7.11 0 13.57 1.81 19.2 5.38 5.61 3.57 10.09 8.63 13.32 15.04 3.21 6.38 4.84 13.88 4.84 22.27v1.66c0 8.5-1.63 16.05-4.84 22.43-3.22 6.42-7.68 11.47-13.23 15.04-5.57 3.57-12.01 5.39-19.12 5.39-5.97 0-11.47-1.5-16.36-4.45-1.93-1.16-3.72-2.5-5.36-4v40.01Zm-17.92-3h14.93v-40.12a37.019 37.019 0 0 1-3.53-4.94l-.54-.91 7.07-8.48v13.2c2.03 2.23 4.34 4.12 6.91 5.68 4.42 2.67 9.4 4.02 14.81 4.02 6.54 0 12.42-1.65 17.51-4.91 5.1-3.27 9.19-7.93 12.17-13.86 3-5.96 4.52-13.05 4.52-21.08v-1.66c0-7.92-1.52-14.96-4.52-20.92-2.98-5.92-7.1-10.58-12.25-13.86-5.14-3.26-11.06-4.92-17.59-4.92-5.61 0-10.77 1.46-15.33 4.34a31.828 31.828 0 0 0-7.33 6.37v13.21l-6.9-8.31.5-.9c1.01-1.81 2.15-3.51 3.39-5.08v-7.97h-13.83v111.1Zm14.53-45.71c.13.2.26.41.4.61v-1.08l-.4.48Zm-.96-51.77.26.32v-.75c-.09.14-.18.29-.26.44Zm23.12 52.15c-4.32 0-8.29-1.11-11.79-3.3-3.5-2.19-6.26-5.33-8.19-9.34-1.91-3.95-2.88-8.69-2.88-14.1s.97-10.32 2.88-14.27c1.94-4.01 4.7-7.13 8.21-9.26 3.5-2.13 7.46-3.21 11.77-3.21s7.91 1.05 11.3 3.13c3.4 2.08 6.1 5.07 8.04 8.91 1.92 3.8 2.89 8.41 2.89 13.72v1.66c0 5.19-.97 9.79-2.88 13.7-1.94 3.95-4.64 7.03-8.03 9.16-3.4 2.14-7.21 3.22-11.32 3.22Zm0-50.5c-3.75 0-7.19.93-10.21 2.77-3.01 1.83-5.39 4.52-7.07 8.01-1.71 3.54-2.58 7.9-2.58 12.97s.87 9.26 2.58 12.8c1.68 3.49 4.07 6.21 7.08 8.1 3.01 1.89 6.44 2.84 10.19 2.84 3.54 0 6.81-.93 9.72-2.76 2.91-1.83 5.25-4.51 6.93-7.94 1.71-3.49 2.57-7.65 2.57-12.38v-1.66c0-4.83-.86-8.99-2.57-12.36-1.68-3.33-4.01-5.92-6.93-7.7-2.92-1.78-6.2-2.69-9.74-2.69ZM484.36 140.87c-6.86 0-12.34-1.99-16.44-5.98-4.11-3.99-6.16-9.47-6.16-16.44V27.26l8.11 8.64h-20.73V19.62h30.55v99.16c0 1.77.57 3.24 1.71 4.4 1.14 1.16 2.49 1.74 4.05 1.74h7.95v15.94h-9.04Z"/><path d="M494.9 142.37h-10.54c-7.23 0-13.12-2.15-17.49-6.4-4.39-4.26-6.61-10.15-6.61-17.52V37.4h-12.63V18.12h33.55v100.66c0 1.38.42 2.47 1.28 3.35.86.87 1.83 1.3 2.98 1.3h9.45v18.94ZM463.26 37.4v81.05c0 6.52 1.92 11.69 5.7 15.37 3.79 3.69 8.98 5.56 15.4 5.56h7.54v-12.94h-6.45c-1.97 0-3.69-.74-5.12-2.19-1.42-1.44-2.14-3.28-2.14-5.45V21.13h-27.55v13.28h9.63V23.48l13.07 13.93h-10.07Zm0-3h3.14l-3.14-3.35v3.35ZM539.23 142.53c-7.59 0-14.26-1.74-20.03-5.23-5.77-3.49-10.29-8.36-13.56-14.61-3.27-6.25-4.91-13.54-4.91-21.84v-1.66c0-7.75 1.51-14.67 4.52-20.76 3.01-6.09 7.27-10.96 12.78-14.62 5.51-3.65 11.85-5.48 19.02-5.48 7.58 0 14.08 1.99 19.48 5.98s9.35 9.58 11.85 16.78c2.49 7.2 3.17 15.61 2.03 25.25h-56.74V92.72h47.23l-8.11 6.98c.83-5.54.65-10.21-.55-14.03-1.2-3.82-3.09-6.75-5.69-8.8-2.6-2.05-5.72-3.07-9.35-3.07-4.16 0-7.61 1.11-10.37 3.32-2.75 2.22-4.83 5.23-6.24 9.05-1.4 3.82-2.1 8.17-2.1 13.04v3.32c0 4.54.86 8.61 2.57 12.21 1.71 3.6 4.18 6.39 7.4 8.39 3.22 1.99 7.12 2.99 11.69 2.99 3.84 0 7.09-.58 9.74-1.74 2.65-1.16 5.07-2.85 7.25-5.06l10.13 11.46c-3.12 3.88-7.07 6.81-11.85 8.8-4.78 1.99-10.19 2.99-16.21 2.99Z"/><path d="M539.23 144.03c-7.83 0-14.83-1.83-20.81-5.45-5.98-3.61-10.73-8.73-14.11-15.2-3.37-6.44-5.08-14.02-5.08-22.54v-1.66c0-7.95 1.57-15.16 4.68-21.43 3.12-6.3 7.59-11.42 13.3-15.2 5.73-3.8 12.41-5.73 19.85-5.73 7.88 0 14.73 2.11 20.38 6.27 5.63 4.15 9.79 10.04 12.37 17.49 2.56 7.38 3.26 16.1 2.1 25.91l-.16 1.32h-51.29c.4 2.23 1.06 4.32 1.97 6.24 1.58 3.32 3.88 5.93 6.84 7.76 2.96 1.84 6.63 2.77 10.9 2.77 3.62 0 6.69-.54 9.14-1.62 2.47-1.08 4.75-2.68 6.78-4.74l1.13-1.15 12.04 13.61-.79.99c-3.26 4.05-7.44 7.16-12.44 9.25-4.94 2.06-10.59 3.11-16.79 3.11Zm-2.18-84.21c-6.84 0-12.96 1.76-18.19 5.23-5.26 3.49-9.39 8.21-12.27 14.03-2.9 5.85-4.37 12.61-4.37 20.1v1.66c0 8.02 1.59 15.14 4.74 21.15 3.13 5.98 7.51 10.7 13.01 14.03s11.98 5.02 19.25 5.02c5.8 0 11.06-.97 15.63-2.88 4.12-1.72 7.63-4.2 10.44-7.39l-8.24-9.32c-2 1.81-4.2 3.24-6.56 4.28-2.83 1.24-6.31 1.87-10.35 1.87-4.84 0-9.04-1.08-12.48-3.21-3.46-2.14-6.14-5.17-7.97-9.02-1.1-2.32-1.88-4.84-2.31-7.53h-5.24V91.22h5.52c.36-1.97.86-3.83 1.5-5.58 1.49-4.06 3.75-7.33 6.7-9.7 3.01-2.42 6.82-3.65 11.31-3.65 3.96 0 7.42 1.14 10.28 3.4 2.83 2.23 4.91 5.44 6.19 9.53.57 1.82.92 3.82 1.06 6.01h10.21l-14.23 12.25.6-3.99c.28-1.85.44-3.6.48-5.25h-31.51a44.23 44.23 0 0 0-.28 4.98v3.32c0 .79.03 1.56.08 2.32h48.98c.9-8.82.19-16.64-2.1-23.25-2.38-6.87-6.19-12.27-11.32-16.06-5.12-3.77-11.37-5.69-18.59-5.69Zm-21.88 45h1.91c-.05-.76-.08-1.53-.08-2.32v-3.32c0-1.71.09-3.38.26-4.98h-2.09v10.62Zm39.62-10.62c-.01.61-.04 1.22-.09 1.85l2.15-1.85h-2.07Zm-34.04-3h30.99c-.13-1.86-.43-3.57-.92-5.11-1.1-3.5-2.84-6.22-5.19-8.07-2.35-1.85-5.1-2.75-8.42-2.75-3.79 0-6.96 1.01-9.43 2.99-2.53 2.03-4.47 4.86-5.77 8.4a31.11 31.11 0 0 0-1.27 4.54ZM575.55 140.87l25.88-40.36-25.1-40.53h21.04l16.21 28.24 16.06-28.24h20.73l-25.1 40.36 25.56 40.52h-21.36l-16.52-27.9-16.52 27.9h-20.89Z"/><path d="M653.56 142.37h-24.93l-15.67-26.46-15.67 26.46H572.8l26.85-41.87-26.02-42.01h24.6l15.34 26.71 15.19-26.71h24.3l-26.03 41.85 26.51 42.03Zm-23.22-3h17.78l-24.61-39.02 24.17-38.87h-17.16L613.6 91.24l-17.08-29.76h-17.48l24.17 39.04-24.9 38.85h17.29l17.38-29.35 17.38 29.35ZM129.99 118.62c-8.86-5.31-17.72-10.61-26.58-15.92-7.24 8.84-18.24 14.48-30.56 14.48s-23.53-5.75-30.77-14.74c-9.48 5.63-18.96 11.25-28.44 16.88-.41.38-2.43 2.32-2.55 5.46-.1 2.51 1.07 4.29 1.48 4.85 17.2 10.7 34.41 21.4 51.61 32.1 4.67 4.67 12.24 4.67 16.91 0 17.02-10.67 34.05-21.34 51.07-32.02.32-.26 2.46-2.06 2.46-4.93 0-2.67-1.84-5.17-4.62-6.16ZM143.2 32.5a11.826 11.826 0 0 0-3.29-2.94C121.84 19.71 103.77 9.87 85.7.03c-.48-.05-2.73-.23-4.73 1.35-2.46 1.95-2.45 4.93-2.45 5.28 0 10.64.02 21.28.02 31.92 19.12 2.76 33.81 19.21 33.81 39.09 0 5.09-.97 9.95-2.73 14.42 7.58 4.04 16.76 8.87 27.13 14.24.21.13 2.56 1.54 5.21.4 2.65-1.14 3.25-3.8 3.3-4.04.09-21.53.18-43.06.26-64.59-.16-1.14-.64-3.4-2.33-5.61ZM33.35 77.68c0-19.82 14.6-36.23 33.63-39.07 0-10.65.02-21.3.02-31.95 0-.35.01-3.33-2.45-5.28-2-1.58-4.25-1.4-4.73-1.35-18.07 9.84-36.14 19.68-54.2 29.52-.88.53-2.15 1.45-3.29 2.94A12.007 12.007 0 0 0 0 38.1c.09 21.53.18 43.06.26 64.59.05.24.65 2.9 3.3 4.04 2.65 1.14 5-.27 5.21-.4 10.43-5.41 19.66-10.26 27.28-14.32a39.48 39.48 0 0 1-2.7-14.34Z"/><circle cx="72.85" cy="77.31" r="25.13"/></g></svg>
