<svg xmlns="http://www.w3.org/2000/svg" viewBox="0 0 996.57 267.1"><style>g{fill:#fff}@media (prefers-color-scheme:light){g{fill:#000}}</style><g><path d="M268.91 65.25V36.88H393.7v28.37H268.91Zm47.3 148.91V50.05h29.47v164.11h-29.47Z"/><path d="M347.97 216.45h-34.05V67.53h-47.3V34.59h129.36v32.94h-48.01v148.92Zm-29.47-4.58h24.9V67.53h-24.9v144.34Zm29.47-148.91h43.44V39.17H271.2v23.79h42.73v-15.2h34.05v15.2Zm-29.47 0h24.9V52.34h-24.9v10.62ZM396.79 214.16V90.82h26.38v35.71l-3.33-.25c.48-9.28 2.3-16.59 5.47-21.91s7.29-9.07 12.36-11.27c5.07-2.19 10.61-3.29 16.64-3.29h9.51v28.87h-11.65c-9.03 0-15.97 2.19-20.8 6.58-4.84 4.39-7.25 10.81-7.25 19.25v69.65h-27.33Z"/><path d="M426.41 216.45H394.5V88.54h30.96v11.51c3.09-4.09 6.88-7.13 11.3-9.04 5.34-2.31 11.24-3.48 17.55-3.48h11.8v33.45h-13.94c-8.4 0-14.88 2.01-19.26 5.99-4.37 3.97-6.5 9.72-6.5 17.56v71.93Zm-27.34-4.58h22.76v-67.36c0-9.07 2.69-16.12 8-20.94 5.24-4.76 12.76-7.18 22.34-7.18h9.36v-24.3h-7.22c-5.67 0-10.97 1.04-15.73 3.1-4.6 1.99-8.4 5.47-11.3 10.34-.67 1.12-1.27 2.35-1.82 3.67v19.78l-8.01-.61.11-2.23c.36-6.95 1.47-12.91 3.33-17.81V93.08h-21.81v118.76ZM503.5 214.16V102.47l12.12 13.17h-33.28V90.82h48.49v123.34H503.5Zm-1.42-147.9V32.58h30.42v33.68h-30.42Z"/><path d="M533.13 216.45h-31.91v-98.52h-21.15V88.54h53.06v127.91Zm-27.34-4.58h22.76V93.11h-43.91v20.25h16.58V96.62l19.62 21.32h-15.05v93.94Zm0-98.51h4.62l-4.62-5.02v5.02Zm29-44.81h-35V30.29h35v38.26Zm-30.42-4.58h25.85V34.86h-25.85v29.11ZM562.45 264.81V90.82h25.67v29.88l-5.47-6.58c4.43-7.93 10.34-14.22 17.71-18.87 7.37-4.64 15.57-6.97 24.6-6.97 10.46 0 19.81 2.62 28.05 7.85 8.24 5.24 14.74 12.58 19.49 22.03 4.75 9.46 7.13 20.43 7.13 32.92v2.53c0 12.66-2.38 23.72-7.13 33.18s-11.21 16.8-19.37 22.03c-8.16 5.24-17.47 7.85-27.93 7.85-8.72 0-16.64-2.15-23.77-6.46-7.13-4.3-12.92-10.17-17.35-17.6l5.7-6.84v79.02h-27.33Zm58.23-73.7c5.86 0 11.21-1.52 16.04-4.56 4.83-3.04 8.63-7.38 11.41-13.04 2.77-5.66 4.16-12.28 4.16-19.88v-2.53c0-7.76-1.39-14.39-4.16-19.88-2.78-5.48-6.58-9.71-11.41-12.66-4.84-2.95-10.18-4.43-16.04-4.43-6.18 0-11.77 1.52-16.76 4.56-4.99 3.04-8.88 7.43-11.65 13.17-2.77 5.74-4.16 12.66-4.16 20.77s1.38 14.77 4.16 20.51c2.77 5.74 6.66 10.17 11.65 13.3 4.99 3.12 10.58 4.68 16.76 4.68Z"/><path d="M592.07 267.1h-31.91V88.54h30.25v11.66c2.66-2.59 5.57-4.89 8.73-6.88 7.71-4.86 16.4-7.32 25.82-7.32 10.84 0 20.69 2.76 29.27 8.21 8.56 5.44 15.39 13.16 20.31 22.94 4.89 9.74 7.38 21.16 7.38 33.95v2.53c0 12.97-2.48 24.47-7.38 34.21-4.92 9.78-11.71 17.5-20.18 22.93-8.5 5.45-18.31 8.21-29.16 8.21-9.1 0-17.49-2.28-24.95-6.79a51.082 51.082 0 0 1-8.18-6.11v61.01Zm-27.33-4.57h22.76v-61.18a55.136 55.136 0 0 1-5.38-7.54l-.83-1.39 10.79-12.93v20.13c3.09 3.39 6.61 6.29 10.54 8.66 6.74 4.07 14.33 6.13 22.59 6.13 9.97 0 18.95-2.52 26.69-7.49 7.77-4.98 14.02-12.09 18.56-21.13 4.57-9.09 6.89-19.9 6.89-32.15v-2.53c0-12.07-2.32-22.8-6.89-31.9-4.54-9.03-10.82-16.14-18.67-21.13-7.84-4.97-16.86-7.5-26.82-7.5-8.55 0-16.42 2.23-23.38 6.61-4.21 2.65-7.95 5.9-11.17 9.71v20.14l-10.52-12.67.77-1.37c1.55-2.76 3.27-5.35 5.18-7.74V93.1h-21.1v169.41Zm22.15-69.69c.2.31.4.62.6.92v-1.65l-.6.73Zm-1.46-78.95.4.48v-1.15c-.14.22-.27.44-.4.66Zm35.25 79.51c-6.59 0-12.64-1.69-17.97-5.03-5.34-3.34-9.55-8.13-12.49-14.24-2.91-6.02-4.39-13.26-4.39-21.51s1.48-15.74 4.39-21.76c2.95-6.12 7.17-10.87 12.52-14.13 5.33-3.25 11.37-4.89 17.95-4.89s12.05 1.6 17.23 4.77c5.18 3.17 9.3 7.74 12.26 13.58 2.92 5.79 4.41 12.83 4.41 20.91v2.53c0 7.91-1.48 14.94-4.39 20.89-2.95 6.02-7.07 10.72-12.24 13.97-5.18 3.26-10.99 4.91-17.26 4.91Zm0-76.99c-5.72 0-10.96 1.42-15.57 4.23-4.59 2.79-8.21 6.9-10.78 12.21-2.61 5.4-3.93 12.05-3.93 19.77s1.32 14.12 3.93 19.52c2.57 5.32 6.2 9.47 10.8 12.35 4.6 2.88 9.83 4.34 15.54 4.34 5.4 0 10.38-1.41 14.83-4.21 4.44-2.8 8-6.87 10.57-12.11 2.6-5.32 3.93-11.67 3.93-18.87v-2.53c0-7.36-1.32-13.7-3.91-18.85-2.57-5.07-6.12-9.03-10.56-11.74-4.45-2.72-9.45-4.1-14.85-4.1ZM738.57 214.16c-10.46 0-18.82-3.04-25.07-9.12-6.26-6.08-9.39-14.44-9.39-25.07V40.93l12.36 13.17h-31.61V29.28h46.59v151.2c0 2.7.87 4.94 2.61 6.71 1.74 1.77 3.8 2.66 6.18 2.66h12.12v24.31h-13.79Z"/><path d="M754.64 216.45h-16.07c-11.03 0-20-3.28-26.67-9.76-6.69-6.49-10.08-15.48-10.08-26.71V56.39h-19.25V27h51.16v153.48c0 2.1.64 3.77 1.96 5.11 1.31 1.33 2.8 1.98 4.55 1.98h14.41v28.89ZM706.39 56.39v123.58c0 9.95 2.92 17.83 8.69 23.43 5.79 5.62 13.69 8.47 23.48 8.47h11.5v-19.74h-9.83c-3 0-5.63-1.13-7.81-3.34-2.17-2.2-3.27-5-3.27-8.31V31.57h-42.01v20.24h14.68V35.15l19.93 21.24h-15.36Zm0-4.58h4.79l-4.79-5.1v5.1ZM822.24 216.69c-11.57 0-21.75-2.66-30.54-7.98s-15.69-12.75-20.68-22.29-7.49-20.64-7.49-33.3v-2.53c0-11.82 2.3-22.37 6.89-31.66 4.59-9.28 11.09-16.72 19.49-22.29 8.4-5.57 18.06-8.36 29-8.36 11.57 0 21.47 3.04 29.71 9.12 8.24 6.08 14.26 14.61 18.06 25.58 3.8 10.98 4.83 23.81 3.09 38.49h-86.52V140.7h72.02l-12.36 10.64c1.27-8.44.99-15.57-.83-21.4-1.82-5.83-4.72-10.3-8.68-13.42-3.96-3.12-8.72-4.69-14.26-4.69-6.34 0-11.61 1.69-15.81 5.07-4.2 3.38-7.37 7.98-9.51 13.8-2.14 5.83-3.21 12.45-3.21 19.88v5.07c0 6.92 1.31 13.13 3.92 18.61 2.61 5.49 6.38 9.75 11.29 12.79 4.91 3.04 10.85 4.56 17.83 4.56 5.86 0 10.82-.89 14.86-2.66 4.04-1.77 7.72-4.34 11.05-7.72l15.45 17.47c-4.75 5.91-10.78 10.38-18.06 13.42-7.29 3.04-15.53 4.56-24.72 4.56Z"/><path d="M822.24 218.98c-11.94 0-22.61-2.8-31.73-8.31-9.12-5.51-16.36-13.31-21.52-23.18-5.14-9.82-7.75-21.39-7.75-34.36v-2.53c0-12.12 2.4-23.11 7.13-32.67 4.76-9.61 11.58-17.41 20.28-23.18 8.74-5.8 18.92-8.74 30.26-8.74 12.01 0 22.46 3.22 31.07 9.56 8.58 6.33 14.93 15.3 18.87 26.67 3.9 11.25 4.98 24.55 3.2 39.51l-.24 2.02h-78.2c.61 3.41 1.61 6.59 3.01 9.52 2.41 5.06 5.92 9.04 10.43 11.83 4.52 2.8 10.11 4.22 16.62 4.22 5.52 0 10.21-.83 13.94-2.47 3.76-1.65 7.24-4.08 10.34-7.23l1.72-1.75 18.35 20.76-1.21 1.5c-4.97 6.18-11.35 10.92-18.97 14.1-7.54 3.14-16.15 4.74-25.6 4.74Zm-3.33-128.4c-10.43 0-19.76 2.68-27.73 7.98-8.02 5.32-14.31 12.52-18.7 21.4-4.42 8.92-6.66 19.23-6.66 30.64v2.53c0 12.23 2.43 23.08 7.23 32.24 4.77 9.12 11.45 16.31 19.84 21.39 8.39 5.07 18.27 7.65 29.36 7.65 8.84 0 16.86-1.47 23.84-4.38 6.29-2.62 11.63-6.41 15.92-11.27l-12.57-14.21c-3.05 2.76-6.41 4.95-10 6.52-4.31 1.89-9.62 2.85-15.78 2.85-7.37 0-13.78-1.65-19.03-4.9-5.27-3.26-9.36-7.89-12.15-13.75-1.68-3.53-2.86-7.38-3.52-11.49h-7.99v-25.34h8.42c.55-3 1.32-5.84 2.29-8.51 2.28-6.19 5.71-11.17 10.22-14.8 4.6-3.7 10.4-5.57 17.24-5.57 6.04 0 11.32 1.74 15.68 5.18 4.31 3.41 7.49 8.3 9.44 14.54.87 2.77 1.4 5.83 1.61 9.16h15.56l-21.7 18.67.91-6.09c.42-2.82.67-5.49.73-8.01h-48.05a66.31 66.31 0 0 0-.42 7.59v5.07c0 1.2.04 2.38.13 3.54h74.69c1.37-13.45.29-25.37-3.2-35.46-3.63-10.48-9.44-18.72-17.26-24.49-7.8-5.75-17.34-8.67-28.35-8.67Zm-33.36 68.62h2.91c-.08-1.16-.11-2.34-.11-3.54v-5.07c0-2.61.13-5.15.39-7.59h-3.19v16.19Zm60.42-16.2c-.02.92-.07 1.87-.13 2.83l3.28-2.83h-3.15Zm-51.92-4.57h47.25c-.2-2.84-.66-5.45-1.4-7.79-1.67-5.34-4.33-9.49-7.91-12.31-3.58-2.82-7.78-4.19-12.84-4.19-5.77 0-10.61 1.53-14.37 4.56-3.85 3.1-6.81 7.41-8.79 12.81a46.88 46.88 0 0 0-1.93 6.93ZM877.62 214.16l39.46-61.54-38.27-61.8h32.09l24.72 43.05 24.48-43.05h31.61l-38.27 61.54 38.98 61.79h-32.56l-25.19-42.55-25.2 42.55h-31.85Z"/><path d="M996.57 216.45h-38.02l-23.89-40.35-23.89 40.35h-37.34l40.94-63.85-39.67-64.06h37.52l23.39 40.73 23.16-40.73h37.06l-39.68 63.82 40.43 64.09Zm-35.4-4.58h27.11l-37.53-59.5 36.85-59.26h-26.16l-25.8 45.38-26.05-45.38h-26.66l36.86 59.53-37.98 59.23h26.36l26.5-44.75 26.5 44.75ZM198.66 179.58c-13.66-7.87-27.31-15.75-40.97-23.62-11.05 13.48-27.82 22.08-46.61 22.08s-35.88-8.78-46.92-22.48c-14.19 8.42-28.38 16.84-42.58 25.27-.49.35-4.51 3.38-4.68 8.8-.16 5.15 3.28 8.34 3.77 8.78 37.36 25.57 65.7 43.59 75.78 49.01 2.71 1.46 7.74 3.97 14.28 3.88 6.21-.08 10.93-2.44 13.44-3.79 9.96-5.38 38.62-23.75 76.49-49.77 1.61-1.37 4.53-4.27 4.59-8.11.07-4.34-3.25-8.11-6.61-10.04ZM218.35 48.91c-1.74-2.28-3.69-3.67-5.01-4.49-5.21-3.24-36.5-20.09-79.56-42.73-1.77-.74-6.76-2.58-10.31-.22-2.91 1.94-3.73 5.77-3.73 8.05l.03 48.68c29.15 4.21 51.55 29.29 51.55 59.6 0 7.76-1.48 15.18-4.16 21.99 11.56 6.16 25.56 13.52 41.37 21.72.32.2 3.9 2.34 7.94.6 4.03-1.73 4.95-5.79 5.03-6.16.13-32.83.27-65.66.4-98.49-.24-1.73-.97-5.18-3.55-8.55ZM50.85 117.8c0-30.22 22.26-55.24 51.28-59.57l.03-48.71c0-2.44-.91-6.02-3.73-8.05C95.08-.94 90.48.22 88.74.75 45.33 23.95 13.77 41.18 8.56 44.42c-1.2.75-3.21 2.13-5.01 4.49C.97 52.28.25 55.73 0 57.46c.13 32.83.27 65.66.4 98.49.08.37.99 4.42 5.03 6.16 4.05 1.74 7.63-.41 7.94-.6a4415.65 4415.65 0 0 0 41.59-21.83 60.135 60.135 0 0 1-4.11-21.87Z"/><circle cx="111.08" cy="117.24" r="38.31"/></g></svg>
