<?xml version="1.0" encoding="UTF-8"?>
<svg id="Layer_2" data-name="Layer 2" xmlns="http://www.w3.org/2000/svg" viewBox="0 0 478.7 500.66">
  <defs>
    <style>
      .cls-1 {
        fill: #fff;
      }
    </style>
  </defs>
  <g id="Layer_1-2" data-name="Layer 1">
    <g>
      <path class="cls-1" d="M346.6,224.02c-16.73-10.02-33.47-20.04-50.2-30.06-13.68,16.69-34.46,27.35-57.72,27.35s-44.44-10.87-58.11-27.84c-17.9,10.62-35.81,21.25-53.71,31.87-.77.71-4.59,4.38-4.82,10.32-.18,4.74,2.03,8.1,2.79,9.15,32.49,20.21,64.98,40.41,97.47,60.62,8.82,8.82,23.11,8.82,31.93,0,32.15-20.15,64.3-40.31,96.45-60.46.6-.49,4.64-3.89,4.65-9.31.01-5.04-3.47-9.76-8.73-11.64Z"/>
      <path class="cls-1" d="M371.53,61.37c-2.15-2.82-4.56-4.56-6.21-5.56C331.2,37.23,297.07,18.65,262.95.06c-.9-.09-5.16-.44-8.94,2.55-4.64,3.68-4.63,9.3-4.62,9.97.01,20.1.03,40.19.04,60.29,36.1,5.22,63.85,36.27,63.85,73.82,0,9.62-1.84,18.8-5.15,27.24,14.32,7.63,31.66,16.75,51.24,26.9.39.24,4.83,2.9,9.84.75,5-2.15,6.13-7.17,6.22-7.63.17-40.66.33-81.33.5-121.99-.3-2.15-1.2-6.42-4.39-10.59Z"/>
      <path class="cls-1" d="M164.07,146.7c0-37.43,27.57-68.42,63.51-73.78.02-20.11.03-40.22.04-60.33.01-.67.02-6.29-4.62-9.97C219.23-.38,214.97-.03,214.07.06c-34.12,18.58-68.25,37.17-102.37,55.75-1.65,1-4.06,2.74-6.21,5.56-3.19,4.18-4.09,8.44-4.4,10.59.17,40.66.33,81.33.5,121.99.09.46,1.23,5.48,6.22,7.63,5.01,2.15,9.45-.5,9.84-.75,19.7-10.21,37.14-19.39,51.51-27.04-3.28-8.4-5.09-17.53-5.09-27.09Z"/>
      <circle class="cls-1" cx="238.67" cy="146.01" r="47.45"/>
    </g>
    <g>
      <g>
        <path class="cls-1" d="M1.5,368.28v-18.6h81.83v18.6H1.5ZM32.52,465.95v-107.63h19.33v107.63h-19.33Z"/>
        <path class="cls-1" d="M53.35,467.45h-22.33v-97.66H0v-21.6h84.83v21.6h-31.49v97.66ZM34.02,464.45h16.33v-94.66h-16.33v94.66ZM53.35,366.78h28.49v-15.6H3v15.6h28.02v-9.97h22.33v9.97ZM34.02,366.78h16.33v-6.97h-16.33v6.97Z"/>
      </g>
      <g>
        <path class="cls-1" d="M85.36,465.95v-80.89h17.3v23.42l-2.18-.17c.31-6.09,1.51-10.88,3.58-14.37,2.08-3.49,4.78-5.95,8.11-7.39,3.32-1.44,6.96-2.16,10.91-2.16h6.24v18.93h-7.64c-5.92,0-10.47,1.44-13.64,4.32-3.17,2.88-4.75,7.09-4.75,12.62v45.67h-17.93Z"/>
        <path class="cls-1" d="M104.79,467.45h-20.93v-83.89h20.3v7.55c2.02-2.68,4.51-4.67,7.41-5.93,3.5-1.51,7.37-2.28,11.51-2.28h7.74v21.93h-9.14c-5.51,0-9.76,1.32-12.63,3.93s-4.26,6.37-4.26,11.51v47.17ZM86.86,464.45h14.93v-44.17c0-5.95,1.76-10.57,5.25-13.73,3.44-3.12,8.37-4.71,14.65-4.71h6.14v-15.93h-4.74c-3.72,0-7.19.68-10.32,2.04-3.02,1.31-5.51,3.59-7.41,6.78-.44.74-.83,1.54-1.19,2.41v12.97l-5.26-.4.08-1.46c.23-4.56.97-8.47,2.18-11.68v-10h-14.3v77.89Z"/>
      </g>
      <g>
        <path class="cls-1" d="M155.35,465.95v-73.25l7.95,8.64h-21.82v-16.28h31.8v80.89h-17.93ZM154.41,368.95v-22.09h19.95v22.09h-19.95Z"/>
        <path class="cls-1" d="M174.77,467.45h-20.93v-64.61h-13.87v-19.28h34.8v83.89ZM156.85,464.45h14.93v-77.89h-28.8v13.28h10.87v-10.98l12.87,13.98h-9.87v61.61ZM156.85,399.84h3.03l-3.03-3.29v3.29ZM175.86,370.45h-22.95v-25.09h22.95v25.09ZM155.91,367.45h16.95v-19.09h-16.95v19.09Z"/>
      </g>
      <g>
        <path class="cls-1" d="M194,499.16v-114.1h16.83v19.6l-3.58-4.32c2.91-5.2,6.78-9.33,11.61-12.37,4.83-3.04,10.21-4.57,16.13-4.57,6.86,0,12.99,1.72,18.39,5.15,5.4,3.43,9.66,8.25,12.78,14.45,3.12,6.2,4.68,13.4,4.68,21.59v1.66c0,8.3-1.56,15.56-4.68,21.76-3.12,6.2-7.35,11.02-12.7,14.45-5.35,3.43-11.46,5.15-18.32,5.15-5.72,0-10.91-1.41-15.59-4.24-4.68-2.82-8.47-6.67-11.38-11.54l3.74-4.48v51.82h-17.93ZM232.19,450.83c3.84,0,7.35-1,10.52-2.99,3.17-1.99,5.66-4.84,7.48-8.55,1.82-3.71,2.73-8.06,2.73-13.04v-1.66c0-5.09-.91-9.44-2.73-13.04-1.82-3.6-4.31-6.37-7.48-8.3-3.17-1.94-6.68-2.91-10.52-2.91-4.05,0-7.72,1-10.99,2.99-3.27,1.99-5.82,4.87-7.64,8.64-1.82,3.77-2.73,8.3-2.73,13.62s.91,9.69,2.73,13.45c1.82,3.77,4.37,6.67,7.64,8.72,3.27,2.05,6.94,3.07,10.99,3.07Z"/>
        <path class="cls-1" d="M213.43,500.66h-20.93v-117.1h19.83v7.65c1.74-1.7,3.65-3.21,5.73-4.51,5.05-3.19,10.75-4.8,16.93-4.8,7.11,0,13.57,1.81,19.2,5.38,5.61,3.57,10.09,8.63,13.32,15.04,3.21,6.38,4.84,13.88,4.84,22.27v1.66c0,8.5-1.63,16.05-4.84,22.43-3.22,6.42-7.68,11.48-13.23,15.04-5.57,3.57-12.01,5.39-19.12,5.39-5.97,0-11.47-1.5-16.36-4.45-1.93-1.16-3.72-2.5-5.36-4v40.01ZM195.5,497.66h14.93v-40.12c-1.29-1.52-2.47-3.17-3.53-4.94l-.54-.91,7.07-8.48v13.2c2.03,2.23,4.34,4.12,6.91,5.68,4.42,2.67,9.4,4.02,14.81,4.02,6.54,0,12.42-1.65,17.51-4.91,5.1-3.27,9.19-7.93,12.17-13.86,3-5.96,4.52-13.05,4.52-21.08v-1.66c0-7.92-1.52-14.96-4.52-20.92-2.98-5.92-7.1-10.58-12.25-13.86-5.14-3.26-11.06-4.92-17.59-4.92-5.61,0-10.77,1.46-15.33,4.34-2.76,1.74-5.21,3.87-7.33,6.37v13.21l-6.9-8.31.5-.9c1.01-1.81,2.15-3.51,3.39-5.08v-7.97h-13.83v111.1ZM210.03,451.96c.13.2.26.41.4.61v-1.08l-.4.48ZM209.07,400.19l.26.32v-.75c-.09.14-.18.29-.26.44ZM232.19,452.33c-4.32,0-8.29-1.11-11.79-3.3-3.5-2.19-6.26-5.33-8.19-9.34-1.91-3.95-2.88-8.69-2.88-14.11s.97-10.32,2.88-14.27c1.94-4.01,4.7-7.13,8.21-9.26,3.5-2.13,7.46-3.21,11.77-3.21s7.91,1.05,11.3,3.13c3.4,2.08,6.1,5.07,8.04,8.91,1.92,3.8,2.89,8.41,2.89,13.72v1.66c0,5.19-.97,9.79-2.88,13.7-1.94,3.95-4.64,7.03-8.03,9.16-3.4,2.14-7.21,3.22-11.32,3.22ZM232.19,401.84c-3.75,0-7.19.93-10.21,2.77-3.01,1.83-5.39,4.52-7.07,8.01-1.71,3.54-2.58,7.9-2.58,12.97s.87,9.26,2.58,12.8c1.68,3.49,4.07,6.21,7.08,8.1,3.01,1.89,6.44,2.84,10.19,2.84,3.54,0,6.81-.93,9.72-2.76,2.91-1.83,5.25-4.51,6.93-7.94,1.71-3.49,2.57-7.65,2.57-12.38v-1.66c0-4.83-.86-8.99-2.57-12.36-1.68-3.33-4.01-5.92-6.93-7.7-2.92-1.78-6.2-2.69-9.74-2.69Z"/>
      </g>
      <g>
        <path class="cls-1" d="M309.5,465.95c-6.86,0-12.34-1.99-16.44-5.98-4.11-3.99-6.16-9.47-6.16-16.44v-91.18l8.11,8.64h-20.73v-16.28h30.55v99.16c0,1.77.57,3.24,1.71,4.4,1.14,1.16,2.49,1.74,4.05,1.74h7.95v15.94h-9.04Z"/>
        <path class="cls-1" d="M320.05,467.45h-10.54c-7.23,0-13.12-2.15-17.49-6.4-4.39-4.26-6.61-10.15-6.61-17.52v-81.05h-12.63v-19.28h33.55v100.66c0,1.38.42,2.47,1.28,3.35.86.87,1.83,1.3,2.98,1.3h9.45v18.94ZM288.4,362.48v81.05c0,6.52,1.92,11.69,5.7,15.37,3.79,3.69,8.98,5.56,15.4,5.56h7.54v-12.94h-6.45c-1.97,0-3.69-.74-5.12-2.19-1.42-1.44-2.14-3.28-2.14-5.45v-97.66h-27.55v13.28h9.63v-10.93l13.07,13.93h-10.07ZM288.4,359.48h3.14l-3.14-3.35v3.35Z"/>
      </g>
      <g>
        <path class="cls-1" d="M364.38,467.61c-7.59,0-14.26-1.74-20.03-5.23-5.77-3.49-10.29-8.36-13.56-14.62-3.27-6.25-4.91-13.54-4.91-21.84v-1.66c0-7.75,1.51-14.67,4.52-20.76,3.01-6.09,7.27-10.96,12.78-14.62,5.51-3.65,11.85-5.48,19.02-5.48,7.58,0,14.08,1.99,19.48,5.98,5.4,3.99,9.35,9.58,11.85,16.78,2.49,7.2,3.17,15.61,2.03,25.25h-56.74v-13.62h47.23l-8.11,6.98c.83-5.54.65-10.21-.55-14.03-1.2-3.82-3.09-6.75-5.69-8.8-2.6-2.05-5.72-3.07-9.35-3.07-4.16,0-7.61,1.11-10.37,3.32-2.75,2.22-4.83,5.23-6.24,9.05-1.4,3.82-2.1,8.17-2.1,13.04v3.32c0,4.54.86,8.61,2.57,12.21,1.71,3.6,4.18,6.39,7.4,8.39,3.22,1.99,7.12,2.99,11.69,2.99,3.84,0,7.09-.58,9.74-1.74,2.65-1.16,5.07-2.85,7.25-5.07l10.13,11.46c-3.12,3.88-7.07,6.81-11.85,8.8-4.78,1.99-10.19,2.99-16.21,2.99Z"/>
        <path class="cls-1" d="M364.38,469.11c-7.83,0-14.83-1.83-20.81-5.45-5.98-3.62-10.73-8.73-14.11-15.2-3.37-6.44-5.08-14.02-5.08-22.54v-1.66c0-7.95,1.57-15.16,4.68-21.43,3.12-6.3,7.59-11.42,13.3-15.2,5.73-3.8,12.41-5.73,19.85-5.73,7.88,0,14.73,2.11,20.38,6.27,5.63,4.15,9.79,10.04,12.37,17.49,2.56,7.38,3.26,16.1,2.1,25.91l-.16,1.32h-51.29c.4,2.23,1.06,4.32,1.97,6.24,1.58,3.32,3.88,5.93,6.84,7.76,2.96,1.83,6.63,2.76,10.9,2.76,3.62,0,6.69-.54,9.14-1.62,2.46-1.08,4.75-2.68,6.78-4.74l1.13-1.15,12.04,13.61-.79.99c-3.26,4.05-7.44,7.16-12.44,9.25-4.94,2.06-10.59,3.11-16.79,3.11ZM362.19,384.9c-6.84,0-12.96,1.76-18.19,5.23-5.26,3.49-9.39,8.21-12.27,14.03-2.9,5.85-4.37,12.61-4.37,20.1v1.66c0,8.02,1.59,15.14,4.74,21.15,3.13,5.98,7.51,10.7,13.01,14.03s11.98,5.02,19.25,5.02c5.8,0,11.06-.97,15.63-2.88,4.12-1.72,7.63-4.2,10.44-7.39l-8.24-9.32c-2,1.81-4.2,3.24-6.56,4.28-2.83,1.24-6.31,1.87-10.35,1.87-4.84,0-9.04-1.08-12.48-3.21-3.46-2.14-6.14-5.17-7.97-9.02-1.1-2.32-1.88-4.84-2.31-7.53h-5.24v-16.62h5.52c.36-1.97.86-3.83,1.5-5.58,1.49-4.06,3.75-7.33,6.7-9.7,3.01-2.42,6.82-3.65,11.31-3.65,3.96,0,7.42,1.14,10.28,3.4,2.83,2.23,4.91,5.44,6.19,9.53.57,1.82.92,3.82,1.06,6.01h10.21l-14.23,12.25.6-3.99c.28-1.85.44-3.6.48-5.25h-31.51c-.18,1.59-.28,3.25-.28,4.98v3.32c0,.79.03,1.56.08,2.32h48.98c.9-8.82.19-16.64-2.1-23.25-2.38-6.87-6.19-12.27-11.32-16.06-5.12-3.77-11.37-5.69-18.59-5.69ZM340.31,429.9h1.91c-.05-.76-.08-1.53-.08-2.32v-3.32c0-1.71.09-3.38.26-4.98h-2.09v10.62ZM379.93,419.28c-.01.61-.04,1.22-.09,1.85l2.15-1.85h-2.07ZM345.89,416.28h30.99c-.13-1.87-.43-3.57-.92-5.11-1.1-3.5-2.84-6.22-5.19-8.07-2.35-1.85-5.1-2.75-8.42-2.75-3.79,0-6.96,1.01-9.43,2.99-2.53,2.03-4.47,4.86-5.77,8.4-.52,1.43-.95,2.94-1.27,4.54Z"/>
      </g>
      <g>
        <path class="cls-1" d="M400.7,465.95l25.88-40.36-25.1-40.53h21.04l16.21,28.24,16.06-28.24h20.73l-25.1,40.36,25.56,40.53h-21.36l-16.52-27.9-16.52,27.9h-20.89Z"/>
        <path class="cls-1" d="M478.7,467.45h-24.93l-15.67-26.46-15.67,26.46h-24.49l26.85-41.87-26.02-42.01h24.6l15.34,26.71,15.19-26.71h24.3l-26.03,41.85,26.51,42.03ZM455.48,464.45h17.78l-24.61-39.02,24.17-38.87h-17.16l-16.92,29.76-17.08-29.76h-17.48l24.17,39.04-24.9,38.85h17.29l17.38-29.35,17.38,29.35Z"/>
      </g>
    </g>
  </g>
</svg>